Coordinates
version=1
nRows=12
nColumns=34
inDegrees=yes

Units are S.I. units (second, meters, Newtons, ...)
If the header above contains a line with 'inDegrees', this indicates whether rotational values are in degrees (yes) or radians (no).

endheader
time	pelvis_tilt	pelvis_list	pelvis_rotation	pelvis_tx	pelvis_ty	pelvis_tz	hip_flexion_r	hip_adduction_r	hip_rotation_r	knee_angle_r	ankle_angle_r	subtalar_angle_r	mtp_angle_r	hip_flexion_l	hip_adduction_l	hip_rotation_l	knee_angle_l	ankle_angle_l	subtalar_angle_l	mtp_angle_l	lumbar_extension	lumbar_bending	lumbar_rotation	arm_flex_r	arm_add_r	arm_rot_r	elbow_flex_r	pro_sup_r	arm_flex_l	arm_add_l	arm_rot_l	elbow_flex_l	pro_sup_l
      0.00000000	      3.93452794	      0.09564474	      2.32914171	      0.34110163	      1.60940410	     -0.12076268	     -8.71135053	      0.20448701	     -1.20181406	      0.00000000	      1.34135342	     -9.82948268	      0.00000000	     -6.00034383	      1.05027760	     -2.33813961	      5.16428244	      0.25884459	    -15.49712203	      0.00000000	    -10.85290374	      2.12298537	     -2.16907247	      1.73667042	     -9.30722634	     -0.05458636	     19.80987091	     74.79932641	      9.05995360	    -19.51244864	    -19.51282821	     66.04361684	     88.91750184
      0.01666670	      1.40321037	     -0.19780531	      2.02580983	      0.34278724	      1.60329932	     -0.12112067	     -5.91381415	      0.58161541	     -0.48855856	      0.00000000	      0.94393962	     -7.35259409	      0.00000000	     -4.09457464	      1.05377258	     -3.23798158	      3.76562242	     -1.85937042	    -14.53141857	      0.00000000	     -7.05092746	      2.55734551	     -1.89732697	      0.75984298	     -9.04928780	     -1.35759416	     19.59080085	     75.17125791	      8.73199194	    -18.23484537	    -22.91304562	     62.35435716	     87.41209259
      0.03333330	      0.31983084	     -0.02118718	      1.04137029	      0.34191245	      1.60102538	     -0.11997329	     -4.67051284	      0.42047581	     -0.53176232	      0.00000000	      1.48529429	     -6.70339805	      0.00000000	     -3.10441015	      1.52423412	     -5.17280839	      3.43631230	     -1.48906439	    -12.73167156	      0.00000000	     -6.03272834	      1.89354983	     -0.78480324	      0.60689246	     -8.85175602	     -2.47535240	     19.13476138	     76.51585480	      9.29224445	    -19.45120303	    -19.02043573	     59.98792321	     82.34909872
      0.05000000	     -0.17930156	      0.13817843	      0.32612914	      0.34251182	      1.59971989	     -0.11919046	     -3.94405727	      0.20173991	      0.01354226	      0.00000000	      1.94553831	     -6.26833710	      0.00000000	     -3.12762991	      2.00736249	     -5.76182751	      2.27751264	     -1.92656405	    -12.85301144	      0.00000000	     -5.58568203	      1.59239675	     -0.18452157	      0.40107701	     -8.67484363	     -2.79872646	     19.44747331	     76.41355867	      7.28985936	    -18.88376409	    -18.67878640	     60.14591877	     81.92882803
      0.06666670	     -0.73429883	      0.19936887	     -0.11058738	      0.34195999	      1.59823589	     -0.11913687	     -3.27870547	      0.13906456	      0.47275933	      0.00000000	      2.10716972	     -6.59894467	      0.00000000	     -2.83509008	      2.23856733	     -6.13257274	      1.71880216	     -1.64087881	    -12.66649545	      0.00000000	     -4.95211145	      1.40840427	      0.05578083	     -0.12742357	     -8.22546456	     -3.98590461	     20.63130832	     75.85385557	      5.16279804	    -18.23532468	    -17.97841624	     61.34754736	     81.16701393
      0.08333330	     -1.00605723	      0.30833608	     -0.26084311	      0.34287820	      1.59732317	     -0.11861917	     -3.00359769	      0.03150233	      1.06705479	      0.00000000	      2.30407502	     -7.26146227	      0.00000000	     -2.74106718	      2.40483841	     -6.36718362	      1.39304336	     -1.40877720	    -12.31257744	      0.00000000	     -4.50804764	      1.26821770	      0.07994386	     -0.58697747	     -7.75660375	     -5.79228452	     21.86242207	     74.93619247	      4.12463988	    -17.27758741	    -17.30579428	     60.12826400	     80.40302014
      0.10000000	     -0.99027208	      0.45382021	     -0.46356737	      0.34197757	      1.59666965	     -0.11880537	     -3.02668538	     -0.16629338	      1.38749872	      0.00000000	      2.63385454	     -7.32361905	      0.00000000	     -2.83964312	      2.59324388	     -6.44745002	      1.27557288	     -1.30345520	    -12.40549620	      0.00000000	     -4.64899222	      0.93390562	      0.16650587	     -0.40787088	     -7.64837971	     -5.88951289	     22.10307354	     74.87831620	      2.94001227	    -16.29161510	    -16.77107409	     59.41866331	     80.40591736
      0.11666670	     -1.37750920	      0.58873451	     -0.76943809	      0.34349742	      1.59225014	     -0.11770747	     -2.62299029	     -0.29630798	      2.24784015	      0.00000000	      2.46988989	     -8.37409057	      0.00000000	     -2.51658945	      2.70946717	     -6.74923248	      1.22516628	     -1.18094912	    -12.43110323	      0.00000000	     -4.00227409	      0.72948589	      1.04261660	     -0.88134901	     -7.41740971	     -7.02677490	     22.74782072	     74.06208210	      3.26507265	    -15.90441744	    -14.13216854	     55.89661795	     80.41400227
      0.13333330	     -1.36330115	      0.72528340	     -0.78297912	      0.34251620	      1.58873662	     -0.11788149	     -2.67427748	     -0.44175714	      2.50821282	      0.00000000	      2.70611282	     -8.58736510	      0.00000000	     -2.55620441	      2.82808717	     -6.56020148	      1.27539502	     -0.88048994	    -12.56213954	      0.00000000	     -4.06779424	      0.51607533	      0.98201060	     -0.68018057	     -7.33506858	     -7.10796362	     23.13362929	     74.00343765	      1.72212755	    -15.13654725	    -13.55740820	     54.66209311	     80.48011220
      0.15000000	     -1.44872820	      0.91629879	     -0.74722199	      0.34348810	      1.58929108	     -0.11733815	     -2.62625950	     -0.63440679	      2.76598962	      0.00000000	      2.67499713	     -8.99857708	      0.00000000	     -2.49790458	      2.96805685	     -6.69523221	      1.35559709	     -1.00173239	    -12.73902113	      0.00000000	     -3.91907891	      0.21020235	      0.43350227	     -0.57514944	     -7.10447153	     -7.12418389	     23.81373904	     73.96690206	     -0.00563567	    -14.57715051	    -12.73613729	     52.27682758	     80.63493071
      0.16666670	     -1.89501389	      1.01191538	     -0.54689172	      0.34270688	      1.58908434	     -0.11802443	     -2.16293222	     -0.72461231	      2.91367980	      0.00000000	      2.22029196	    -10.13880605	      0.00000000	     -1.88024494	      2.99674086	     -6.51729405	      1.73153354	     -1.19476547	    -13.24305106	      0.00000000	     -3.14268028	      0.06581140	      0.55718814	     -1.03654572	     -7.16388302	     -6.87078968	     24.59298743	     74.00922546	     -0.16179750	    -13.88321180	    -10.77109541	     47.71554414	     81.17627366
      0.18333330	     -2.01604210	      1.10066224	     -0.65917976	      0.34370509	      1.58957777	     -0.11724113	     -2.03091552	     -0.81839019	      3.33617267	      0.00000000	      1.79516461	    -10.63014257	      0.00000000	     -1.77676155	      3.07094979	     -6.71059198	      1.70831183	     -1.57090605	    -14.04163438	      0.00000000	     -2.85364982	     -0.12446928	      0.95787073	     -1.58085848	     -7.09105705	     -6.82463250	     25.42469481	     74.02023012	     -0.47703887	    -13.55879613	     -8.30449292	     44.20801395	     81.93331510
